# xmcd
#
# Track frame offsets:
#	182
#	13145
#	23545
#	34962
#	53007
#	60540
#	77720
#	92062
#	111305
#
# Disc length: 1625 seconds
#
# Revision: 0
# Processed by: cddbd v1.5.2PL0 Copyright (c) Steve Scherf et al.
# Submitted via: dBpowerAMP V4.0
#
DISCID=69065709
DTITLE=Waylon Jennings - My heros have always been cowboys disc 2
DYEAR=1900
DGENRE=Country
TTITLE0=Track001 My heros have always been cowboys
TTITLE1=Track002 I'm looking for blueeyes
TTITLE2=Track003 You mean to say
TTITLE3=Track004 Suspicious minds
TTITLE4=Track005 Heaven or hell
TTITLE5=Track006 Me and Paul
TTITLE6=Track007 Yesterday's wine
TTITLE7=Track008 T for Texas
TTITLE8=Track009 Put another log on the fire
EXTD=
EXTT0=
EXTT1=
EXTT2=
EXTT3=
EXTT4=
EXTT5=
EXTT6=
EXTT7=
EXTT8=
PLAYORDER=
